<?xml version="1.0" encoding="utf-8"?>
<!-- Generator: Adobe Illustrator 26.2.1, SVG Export Plug-In . SVG Version: 6.00 Build 0)  -->
<svg version="1.1" id="Capa_1" xmlns="http://www.w3.org/2000/svg" xmlns:xlink="http://www.w3.org/1999/xlink" x="0px" y="0px"
	 viewBox="0 0 685 250" style="enable-background:new 0 0 685 250;" xml:space="preserve">
<style type="text/css">
	.st0{fill:#F9B13B;}
	.st1{fill:#005567;}
	.st2{fill:#C2C6DD;}
	.st3{fill:#986D9A;}
	.st4{fill:#BE5469;}
	.st5{fill:#837DB4;}
	.st6{fill:#EDEDED;}
	.st7{fill:#DADADA;}
	.st8{fill:#FFFFFF;}
	.st9{fill:#CD8299;}
</style>
<g>
	<g>
		<g>
			<g>
				<g>
					<path class="st0" d="M191.59,202.2c0.15-0.67,5.47-1.63,6.04-1.77c5.45-1.35,11.04-2.19,16.64-2.54
						c16.12-1.01,28.77,3.04,43.36,9.59c13.37,5.99,35.46,11.14,73.63,1.58c0,0,9.66,26.61,9.66,26.61
						c0.25,0.68-48.33,15.66-80.81,5.06c-7.47-2.44-16.47-5.5-23.73-8.52c-5.28-2.2-10.79-3.9-16.39-5.08
						c-11.18-2.35-22.95-2.59-34.03,0.41L191.59,202.2z"/>
				</g>
				<g>
					
						<rect x="218.31" y="203.6" transform="matrix(0.3344 -0.9424 0.9424 0.3344 -43.1241 348.9211)" class="st1" width="14.27" height="2.77"/>
				</g>
				<g>
					
						<rect x="245.43" y="210.23" transform="matrix(0.2912 -0.9567 0.9567 0.2912 -24.0723 390.7475)" class="st1" width="12.46" height="2.77"/>
				</g>
				<g>
					
						<rect x="272.32" y="217.92" transform="matrix(0.198 -0.9802 0.9802 0.198 8.1759 448.6077)" class="st1" width="11.82" height="2.77"/>
				</g>
				<g>
					
						<rect x="304.87" y="213.64" transform="matrix(0.991 -0.1336 0.1336 0.991 -26.5988 42.8845)" class="st1" width="2.77" height="12.01"/>
				</g>
			</g>
			<g>
				<g>
					<g>
						<path class="st2" d="M217.63,64.16c-19.99-14.57-41.13-11.37-56.09-5.56c-10.83,4.21-22.9,3.78-33.51-0.96
							c-14.75-6.59-36.14-11.01-57.05,3.02c-28.04,18.8-34.11,53.13-29.13,84.59c3.69,23.28,11.29,47.43,24.48,67.37
							c12.76,19.29,37.42,39.96,62.33,32.19c7.59-2.37,15.77-2.25,23.15,0.73c35.3,14.27,62.3-25.39,75.27-52.12
							c13.55-27.91,23.43-62.31,15.09-93.19C238.24,85.72,229.78,73.02,217.63,64.16z"/>
					</g>
					<g>
						<path class="st3" d="M135.04,34.42c3.45-8.8,10.32-16.34,17.48-21.11c7.16-4.77,14.65-7.11,21.92-8.8
							c6.44-1.49,12.83-2.52,19.11-3.08c-1.51,5.8-3.99,11.54-6.56,17.19c-3.72,8.15-7.76,16.31-12.97,23.6
							c-5.22,7.29-11.76,13.7-18.67,16.77C141.12,65.32,127.78,52.94,135.04,34.42z"/>
					</g>
				</g>
			</g>
			<g>
				<path class="st0" d="M46.2,92.44c0,0-11.21,9.66,8.22,13.8c14.81,2.72,29.77,4.75,44.71,6.55c31.05,3.75,62.4,6.19,93.69,5.55
					c10.77-0.22,21.54-0.83,32.24-2.1c4.97-0.59,9.96-1.28,14.87-2.27c3.88-0.78,5.84-2.4,4.38-6.5c7.1,1.71,7.02,7.87,6.93,13.79
					c-0.06,3.93-0.42,7.85-1,11.74c-0.53,3.51-0.35,8.71-2.14,11.79c-2.25,3.89-7.94,4.04-11.82,4.6c-4.96,0.72-9.95,1.3-14.94,1.78
					c-9.97,0.95-19.98,1.48-29.99,1.89c-23.78,0.96-47.63,0.41-71.35-1.58c-14.32-1.2-28.6-2.94-42.79-5.23
					c-7.59-1.23-15.15-2.61-22.68-4.15c-4.82-0.99-12.14-2.23-15.36-6.51c-1.34-1.78-2.29-3.84-3-5.94
					c-2.58-7.67-1.65-16.33-0.01-24.09C36.15,105.55,38.3,94.84,46.2,92.44z"/>
			</g>
			<g>
				<path class="st0" d="M42,147.29c0,0,1.27,13.23,11.12,14.08c0,0,125.63,13.99,189.69-9.19c0,0-0.97,13.36-12.38,36.73
					c-17.1,4.84-25.78,6.88-43.35,9c-22.59,2.72-45.35,3.94-68.09,3.72c-13.73-0.14-27.47-0.81-41.16-2.05
					c-11.92-1.07-23.04-3.63-29.95-14.26c-1.54-2.37-2.72-4.97-3.74-7.6c-1.95-5.05-3.2-10.33-4.74-15.51
					c-0.53-1.78-0.85-3.7-1-5.55C38.12,153.31,38.37,148.76,42,147.29z"/>
			</g>
			<g>
				<g>
					
						<rect x="51.68" y="113.72" transform="matrix(0.1551 -0.9879 0.9879 0.1551 -63.4223 156.0479)" class="st1" width="15.68" height="2.77"/>
				</g>
				<g>
					
						<rect x="84.27" y="118.58" transform="matrix(0.1509 -0.9886 0.9886 0.1509 -40.2703 193.0415)" class="st1" width="15.93" height="2.77"/>
				</g>
				<g>
					
						<rect x="116.65" y="122.04" transform="matrix(0.116 -0.9933 0.9933 0.116 -12.5161 232.7951)" class="st1" width="15.75" height="2.77"/>
				</g>
				<g>
					
						<rect x="150.34" y="124.45" transform="matrix(0.0619 -0.9981 0.9981 0.0619 22.9938 276.1281)" class="st1" width="16.1" height="2.77"/>
				</g>
				<g>
					
						<rect x="187.82" y="118.56" transform="matrix(0.9953 -0.0972 0.0972 0.9953 -11.3924 18.9956)" class="st1" width="2.77" height="15.65"/>
				</g>
				<g>
					
						<rect x="220.12" y="116.65" transform="matrix(1 -9.759322e-03 9.759322e-03 1 -1.2038 2.1677)" class="st1" width="2.77" height="15.57"/>
				</g>
				<g>
					
						<rect x="57.96" y="161.81" transform="matrix(0.9892 -0.1465 0.1465 0.9892 -24.1513 10.519)" class="st1" width="2.77" height="14.84"/>
				</g>
				<g>
					
						<rect x="88.67" y="164.2" transform="matrix(0.997 -0.0773 0.0773 0.997 -12.9977 7.4744)" class="st1" width="2.77" height="14.9"/>
				</g>
				<g>
					
						<rect x="122.73" y="165.42" transform="matrix(0.9944 -0.1061 0.1061 0.9944 -17.5862 14.1454)" class="st1" width="2.77" height="13.77"/>
				</g>
				<g>
					
						<rect x="156.79" y="165.14" transform="matrix(0.9933 -0.1154 0.1154 0.9933 -18.8477 19.404)" class="st1" width="2.77" height="14.71"/>
				</g>
				<g>
					
						<rect x="190.69" y="162.84" transform="matrix(0.9965 -0.084 0.084 0.9965 -13.6564 16.7366)" class="st1" width="2.77" height="15.65"/>
				</g>
				<g>
					
						<rect x="220.26" y="158.29" transform="matrix(0.9905 -0.1377 0.1377 0.9905 -20.7423 32.0923)" class="st1" width="2.77" height="15.44"/>
				</g>
			</g>
		</g>
	</g>
	<g>
		<path class="st4" d="M304.28,114.19c-4.22,0-8.05-1.08-11.5-3.25c-3.45-2.16-6.19-5.36-8.21-9.58c-2.03-4.22-3.05-9.32-3.05-15.31
			c0-6.04,1.03-11.19,3.08-15.47c2.06-4.27,4.93-7.55,8.62-9.82c3.69-2.27,7.94-3.41,12.74-3.41c2.56,0,5.28,0.31,8.13,0.92
			c2.86,0.61,5.81,1.62,8.86,3.01l-0.48,11.54h-2.49l-1.12-10.18l0.8,1.04c-2.35-1.01-4.73-1.78-7.13-2.28
			c-2.41-0.51-4.62-0.76-6.65-0.76c-4.01,0-7.52,1-10.54,3.01c-3.02,2-5.37,4.86-7.05,8.58c-1.68,3.71-2.53,8.13-2.53,13.26
			c0,5.4,0.85,9.97,2.56,13.71c1.71,3.74,4.06,6.6,7.05,8.58c2.99,1.98,6.3,2.97,9.94,2.97c2.67,0,5.44-0.57,8.29-1.72
			c2.86-1.15,5.62-2.9,8.3-5.25l1.76,2.49c-3.05,2.67-6.24,4.66-9.58,5.97C310.76,113.53,307.49,114.19,304.28,114.19z"/>
		<path class="st4" d="M338.35,110.82l-0.64-0.72l7.37,1.28v2.24h-17.39v-2.24l7.37-1.28l-0.56,0.72V55.36l0.56,0.72l-7.37-1.28
			v-2.24l10.66-0.48V110.82z"/>
		<path class="st4" d="M361.43,110.82l-0.64-0.72l7.37,1.28v2.24h-17.39v-2.24l7.37-1.28l-0.56,0.72V74.59l0.56,0.64l-7.37-1.2
			v-2.24l10.66-0.48V110.82z M358.87,61.37c-0.91,0-1.64-0.29-2.2-0.88c-0.56-0.59-0.84-1.39-0.84-2.4c0-1.12,0.29-1.98,0.88-2.57
			c0.59-0.59,1.33-0.88,2.24-0.88c0.96,0,1.72,0.29,2.28,0.88c0.56,0.59,0.84,1.44,0.84,2.57c0,1.07-0.31,1.88-0.92,2.44
			C360.54,61.09,359.77,61.37,358.87,61.37z"/>
		<path class="st4" d="M373.77,113.63v-2.24l7.53-1.36l-0.72,0.88V74.43l0.72,0.88l-7.53-1.28v-2.24l9.78-0.48l0.64,7.93L383.55,79
			c2.67-2.78,5.48-4.81,8.42-6.09c2.94-1.28,5.72-1.92,8.34-1.92c3.53,0,6.42,1.06,8.7,3.17c2.27,2.11,3.38,5.38,3.33,9.82v26.93
			l-0.72-0.88l7.45,1.36v2.24h-17.23v-2.24l7.37-1.28l-0.72,0.88V84.85c0-3.69-0.86-6.4-2.56-8.13c-1.71-1.74-3.98-2.61-6.81-2.61
			c-2.24,0-4.69,0.61-7.33,1.84c-2.65,1.23-5.25,3.15-7.82,5.77l0.48-1.04v30.3l-0.72-0.88l7.37,1.28v2.24H373.77z"/>
		<path class="st4" d="M434.77,110.82l-0.64-0.72l7.37,1.28v2.24h-17.39v-2.24l7.37-1.28l-0.56,0.72V74.59l0.56,0.64l-7.37-1.2
			v-2.24l10.66-0.48V110.82z M432.2,61.37c-0.91,0-1.64-0.29-2.2-0.88c-0.56-0.59-0.84-1.39-0.84-2.4c0-1.12,0.29-1.98,0.88-2.57
			c0.59-0.59,1.33-0.88,2.24-0.88c0.96,0,1.72,0.29,2.28,0.88c0.56,0.59,0.84,1.44,0.84,2.57c0,1.07-0.31,1.88-0.92,2.44
			C433.87,61.09,433.11,61.37,432.2,61.37z"/>
		<path class="st4" d="M465.46,114.19c-3.26,0-6.21-0.83-8.86-2.48c-2.64-1.66-4.73-4.06-6.25-7.21c-1.52-3.15-2.28-6.92-2.28-11.3
			c0-3.74,0.52-6.99,1.56-9.74c1.04-2.75,2.45-5.06,4.21-6.93c1.76-1.87,3.82-3.26,6.17-4.17c2.35-0.91,4.81-1.36,7.37-1.36
			c1.87,0,3.98,0.27,6.33,0.8c2.35,0.53,4.49,1.36,6.41,2.48l-0.24,9.14h-2.89l-0.96-8.02l0.48,0.72c-1.6-0.8-3.25-1.35-4.93-1.64
			c-1.68-0.29-3.14-0.44-4.37-0.44c-3.05,0-5.69,0.76-7.93,2.28c-2.25,1.52-4.01,3.69-5.29,6.49c-1.28,2.8-1.92,6.16-1.92,10.06
			c0,3.85,0.63,7.13,1.88,9.86c1.25,2.72,2.96,4.8,5.13,6.21c2.16,1.42,4.58,2.12,7.25,2.12c2.03,0,4.18-0.43,6.45-1.28
			c2.27-0.86,4.55-2.14,6.85-3.85l1.52,2.32c-2.73,2.03-5.41,3.53-8.06,4.49C470.47,113.71,467.92,114.19,465.46,114.19z"/>
		<path class="st4" d="M517.88,111.14l-0.8-1.04l7.61,1.12v2.24l-9.78,0.4l-0.56-7.69l0.4,0.24c-2.4,2.51-5.02,4.44-7.86,5.77
			c-2.83,1.34-5.56,2-8.17,2c-3.1,0-5.65-0.96-7.66-2.88s-3.01-4.84-3.01-8.74c0-3.15,0.65-5.56,1.96-7.21
			c1.31-1.65,3.09-2.78,5.33-3.37c2.24-0.59,4.78-0.88,7.61-0.88h11.7l-0.64,0.64v-8.82c0-3.15-0.88-5.42-2.64-6.81
			c-1.76-1.39-4.14-2.08-7.13-2.08c-1.6,0-3.31,0.19-5.13,0.56c-1.82,0.37-3.74,0.91-5.77,1.6l0.8-0.96l-0.64,7.61h-2.8l-0.64-8.9
			c2.78-0.96,5.42-1.7,7.93-2.2c2.51-0.51,4.86-0.76,7.05-0.76c3.95,0,7.08,0.88,9.38,2.65c2.3,1.76,3.45,4.65,3.45,8.66V111.14z
			 M491.99,102.17c0,3.05,0.73,5.3,2.2,6.77c1.47,1.47,3.35,2.2,5.65,2.2c2.14,0,4.5-0.64,7.09-1.92c2.59-1.28,5.09-3.05,7.49-5.29
			l-0.4,1.28V93.19l0.64,0.64h-11.14c-4.17,0-7.13,0.64-8.9,1.92C492.87,97.04,491.99,99.17,491.99,102.17z"/>
		<path class="st4" d="M563.73,114.19c-2.94,0-5.61-0.81-8.02-2.45c-2.4-1.63-4.3-4.02-5.69-7.17c-1.39-3.15-2.09-6.97-2.09-11.46
			c0-7.21,1.83-12.7,5.49-16.47c3.66-3.77,8.62-5.65,14.87-5.65c1.6,0,3.25,0.12,4.93,0.36c1.68,0.24,3.43,0.63,5.25,1.16
			l-0.96,0.48V55.36l0.64,0.8l-7.77-1.44v-2.16l10.98-0.48v58.91l-0.72-0.88l7.53,1.12v2.24l-9.7,0.4l-0.72-6.81l0.56,0.24
			c-2.46,2.3-4.9,4.02-7.33,5.17C568.55,113.61,566.13,114.19,563.73,114.19z M564.85,111.14c2.08,0,4.26-0.55,6.53-1.64
			c2.27-1.09,4.5-2.77,6.69-5.01l-0.56,1.52V74.75l0.64,1.04c-3.63-1.17-6.97-1.76-10.02-1.76c-5.18,0-9.18,1.64-11.98,4.93
			c-2.81,3.29-4.21,7.9-4.21,13.83c0,3.85,0.56,7.15,1.68,9.9c1.12,2.75,2.67,4.85,4.65,6.29
			C560.25,110.42,562.44,111.14,564.85,111.14z"/>
		<path class="st4" d="M612.54,114.19c-3.42,0-6.45-0.8-9.1-2.4s-4.72-3.98-6.21-7.13c-1.5-3.15-2.25-6.97-2.25-11.46
			s0.76-8.4,2.28-11.74s3.69-5.92,6.49-7.73c2.8-1.82,6.1-2.73,9.9-2.73c3.53,0,6.46,0.78,8.82,2.32c2.35,1.55,4.11,3.69,5.29,6.41
			c1.17,2.73,1.76,5.85,1.76,9.38c0,0.43-0.01,0.87-0.04,1.32c-0.03,0.45-0.07,1.03-0.12,1.72h-31.74v-2.97h28.61l-0.72,0.48
			c0.05-2.78-0.29-5.36-1.04-7.73c-0.75-2.38-2.02-4.29-3.81-5.73c-1.79-1.44-4.21-2.16-7.26-2.16c-3.05,0-5.65,0.79-7.81,2.36
			c-2.16,1.58-3.82,3.77-4.97,6.57c-1.15,2.8-1.72,6.05-1.72,9.74c0,3.85,0.6,7.15,1.8,9.9c1.2,2.75,2.88,4.85,5.05,6.29
			s4.69,2.16,7.57,2.16c2.19,0,4.53-0.41,7.01-1.24c2.49-0.83,5.01-2.12,7.58-3.89l1.52,2.32c-2.88,2.03-5.77,3.53-8.66,4.49
			C617.91,113.71,615.15,114.19,612.54,114.19z"/>
		<path class="st5" d="M313.26,140.54l22.2-0.4v6.89l-7.21,2.8l1.84-2.8v49.77h-16.03l-20.92-42h1.92v35.35l-2-2.72l7.37,2.48v6.89
			h-22.2v-6.89l7.37-2.48l-2,2.72v-43.04l1.28,2.48l-6.65-2.16v-6.89l21.88-0.4l20.52,41.04h-2v-34.06l2,2.72l-7.37-2.4V140.54z"/>
		<path class="st5" d="M355.02,197.85c-3.58,0-6.6-1.17-9.06-3.53c-2.46-2.35-3.69-5.93-3.69-10.74v-22.36l1.2,1.84l-6.09-2.17
			v-6.81l18.51-0.64v27.97c0,2.09,0.47,3.64,1.4,4.65c0.93,1.02,2.17,1.52,3.73,1.52c1.18,0,2.47-0.31,3.89-0.92
			c1.42-0.61,2.85-1.56,4.29-2.84l-0.8,2.24V160.9l1.12,2.17l-6.01-2.17v-6.81l18.51-0.72v36.47l-1.6-2.24l6.41,2.32v6.89
			l-15.47,0.72l-1.76-7.86l1.84,0.56c-2.62,2.57-5.36,4.48-8.21,5.73C360.37,197.22,357.64,197.85,355.02,197.85z"/>
		<path class="st5" d="M406.23,197.85c-4.06,0-7.12-1.22-9.18-3.65c-2.06-2.43-3.08-6.05-3.08-10.86v-22.36l1.68,1.68h-7.45v-7.13
			l7.61-2.32l-1.84,2.32v-11.14l13.62-2.48v13.62l-1.36-1.76h12.1l-0.24,8.9h-11.86l1.36-1.68v20.52c0,2.25,0.35,3.88,1.04,4.89
			c0.69,1.02,1.76,1.52,3.21,1.52c0.8,0,1.7-0.12,2.69-0.36c0.99-0.24,2.1-0.57,3.33-1l2.48,7.29
			C415.48,196.51,410.77,197.85,406.23,197.85z"/>
		<path class="st5" d="M422.98,196.81v-6.89l6.09-2l-1.2,1.92v-28.85l1.44,2.17l-6.33-2.25v-6.81l15.47-0.72l1.68,7.45l-1.68-0.4
			c2.46-2.51,4.86-4.42,7.21-5.73c2.35-1.31,4.84-1.96,7.45-1.96c1.71,0,3.55,0.27,5.53,0.8l-0.72,16.35h-7.86l-1.28-8.82l1.2,2.57
			c-0.27-0.11-0.55-0.19-0.84-0.24c-0.29-0.05-0.6-0.08-0.92-0.08c-1.44,0-2.87,0.45-4.29,1.36c-1.42,0.91-2.58,2-3.49,3.29
			l1.04-3.53v25.41l-1.52-1.92l7.69,2v6.89H422.98z"/>
		<path class="st5" d="M480.05,189.03l-0.88-1.12l5.77,2v6.89h-23.41v-6.89l5.77-2l-0.88,1.12v-27.01l0.8,0.8l-5.69-1.93v-6.81
			l18.51-0.64V189.03z M473,148.4c-2.3,0-4.15-0.65-5.57-1.96c-1.42-1.31-2.12-3.19-2.12-5.65c0-2.56,0.73-4.47,2.2-5.73
			c1.47-1.25,3.33-1.88,5.57-1.88c2.19,0,4.01,0.61,5.45,1.84c1.44,1.23,2.16,3.15,2.16,5.77c0,2.51-0.73,4.41-2.2,5.69
			S475.19,148.4,473,148.4z"/>
		<path class="st5" d="M507.7,197.85c-3.79,0-7.23-0.87-10.3-2.61c-3.07-1.74-5.49-4.26-7.26-7.57c-1.76-3.31-2.64-7.35-2.64-12.1
			c0-4.38,0.65-8.03,1.96-10.94c1.31-2.91,3.05-5.25,5.21-7.01c2.17-1.76,4.57-3.02,7.21-3.77c2.64-0.75,5.33-1.12,8.05-1.12
			c2.83,0,5.6,0.33,8.3,1c2.7,0.67,4.82,1.35,6.37,2.04l-0.32,12.58h-8.58l-1.28-6.09l1.04,0.72c-0.59-0.21-1.36-0.39-2.32-0.52
			c-0.96-0.13-1.9-0.2-2.81-0.2c-2.08,0-3.77,0.52-5.05,1.56c-1.28,1.04-2.2,2.5-2.77,4.37c-0.56,1.87-0.84,4.09-0.84,6.65
			c0,2.88,0.37,5.3,1.12,7.25c0.75,1.95,1.82,3.41,3.21,4.37c1.39,0.96,2.99,1.44,4.81,1.44c1.6,0,3.33-0.32,5.17-0.96
			c1.84-0.64,3.83-1.6,5.97-2.88l4.41,6.89c-3.05,2.35-6.13,4.09-9.26,5.21C513.99,197.29,510.86,197.85,507.7,197.85z"/>
		<path class="st5" d="M546.98,189.03l-0.88-1.12l5.77,2v6.89h-23.41v-6.89l5.77-2l-0.88,1.12v-27.01l0.8,0.8l-5.69-1.93v-6.81
			l18.52-0.64V189.03z M539.92,148.4c-2.3,0-4.15-0.65-5.57-1.96c-1.42-1.31-2.12-3.19-2.12-5.65c0-2.56,0.73-4.47,2.2-5.73
			c1.47-1.25,3.33-1.88,5.57-1.88c2.19,0,4.01,0.61,5.45,1.84c1.44,1.23,2.16,3.15,2.16,5.77c0,2.51-0.73,4.41-2.2,5.69
			S542.12,148.4,539.92,148.4z"/>
		<path class="st5" d="M576.47,152.72c6.63,0,11.74,1.88,15.35,5.65c3.61,3.77,5.41,9.15,5.41,16.15c0,4.86-0.89,9.03-2.68,12.5
			c-1.79,3.47-4.34,6.15-7.66,8.02s-7.27,2.8-11.86,2.8c-6.57,0-11.63-1.88-15.19-5.65c-3.55-3.77-5.33-9.15-5.33-16.15
			c0-4.92,0.87-9.11,2.61-12.58c1.74-3.47,4.25-6.13,7.53-7.98C567.94,153.65,571.88,152.72,576.47,152.72z M569.9,148.8l-4.57-6.49
			l17.63-13.79l6.73,9.06L569.9,148.8z M575.91,162.26c-2.56,0-4.41,1.03-5.53,3.08c-1.12,2.06-1.68,5.41-1.68,10.06
			c0,4.65,0.55,7.96,1.64,9.94c1.1,1.98,2.87,2.97,5.33,2.97c1.76,0,3.18-0.47,4.25-1.4c1.07-0.94,1.86-2.38,2.36-4.33
			c0.51-1.95,0.76-4.45,0.76-7.49c0-4.6-0.56-7.88-1.68-9.86S578.42,162.26,575.91,162.26z"/>
		<path class="st5" d="M601,196.81v-6.89l6.49-2.16l-1.6,1.92v-28.69l1.6,2.17L601,160.9v-6.81l15.47-0.72l1.68,7.53l-1.68-0.56
			c2.56-2.56,5.29-4.47,8.18-5.73c2.88-1.25,5.64-1.88,8.25-1.88c3.58,0,6.6,1.15,9.06,3.45c2.46,2.3,3.66,5.8,3.61,10.5v23
			l-1.12-1.84l6.01,2.08v6.89h-22.68v-6.89l5.69-2l-1.44,2v-20.44c0-2.24-0.48-3.89-1.44-4.93s-2.22-1.56-3.77-1.56
			c-1.23,0-2.55,0.32-3.97,0.96c-1.42,0.64-2.82,1.58-4.21,2.8l0.88-1.84v25.01l-1.2-1.92l5.37,1.92v6.89H601z"/>
	</g>
</g>
</svg>
