<?xml version="1.0" encoding="utf-8"?>
<!-- Generator: Adobe Illustrator 26.3.1, SVG Export Plug-In . SVG Version: 6.00 Build 0)  -->
<svg version="1.1" id="Capa_1" xmlns="http://www.w3.org/2000/svg" xmlns:xlink="http://www.w3.org/1999/xlink" x="0px" y="0px"
	 viewBox="0 0 712 672" style="enable-background:new 0 0 712 672;" xml:space="preserve">
<style type="text/css">
	.st0{fill:#CD8299;}
	.st1{fill:#F0F0F0;}
	.st2{fill:#534B62;}
	.st3{fill:#D6D6D6;}
	.st4{fill:#BDBDBD;}
	.st5{fill:#C0C6DD;}
	.st6{fill:#827DB4;}
	.st7{fill:#FFFFFF;}
	.st8{fill:#BE5469;}
	.st9{fill:#986D99;}
</style>
<g>
	<ellipse class="st0" cx="291.77" cy="545.19" rx="201.3" ry="12"/>
	<g>
		<g>
			<path class="st1" d="M95.42,433.95v41.19c0,3.94,3.22,7.16,7.16,7.16h378.39c3.94,0,7.16-3.21,7.16-7.16v-41.19H95.42z"/>
			<path class="st2" d="M488.13,206.45c0-3.94-3.22-7.16-7.16-7.16H102.58c-3.94,0-7.16,3.22-7.16,7.16v227.5h392.71V206.45z"/>
			<rect x="225.07" y="482.3" class="st3" width="135.08" height="41.47"/>
			<rect x="192.61" y="523.77" class="st1" width="198.14" height="19.41"/>
			<rect x="225.07" y="482.3" class="st4" width="135.08" height="14.99"/>
			<rect x="115.72" y="219.72" class="st5" width="352.19" height="193.25"/>
		</g>
		<g>
			<polygon class="st6" points="254.45,257.63 229.94,282.14 205.43,257.63 195.63,267.43 220.14,291.94 195.63,316.45 
				205.43,326.25 229.94,301.74 254.45,326.25 264.25,316.45 239.74,291.94 264.25,267.43 			"/>
			<polygon class="st6" points="387.92,267.43 378.12,257.63 353.61,282.14 329.1,257.63 319.3,267.43 343.81,291.94 319.3,316.45 
				329.1,326.25 353.61,301.74 378.12,326.25 387.92,316.45 363.41,291.94 			"/>
		</g>
		<g>
			<path class="st6" d="M344.28,386.12c-51.86-35.81-104.39-0.36-104.92,0l-6.8-9.85c0.59-0.41,59.94-40.45,118.52,0L344.28,386.12z
				"/>
		</g>
	</g>
	<g>
		<path class="st0" d="M613.54,114.81H435.99c-4.41,0-7.98,3.57-7.98,7.98v114.67c0,4.41,3.57,7.98,7.98,7.98h20.56l-20.23,38.35
			l68.27-38.35h108.96c4.41,0,7.98-3.57,7.98-7.98V122.79C621.53,118.38,617.95,114.81,613.54,114.81z"/>
		<g>
			<g>
				<path class="st7" d="M483.17,188.37c-0.53,0-0.99-0.19-1.37-0.58c-0.39-0.38-0.58-0.84-0.58-1.37v-8.71h-22.31
					c-0.53,0-0.99-0.19-1.37-0.57c-0.39-0.38-0.58-0.84-0.58-1.37v-5.11c0-0.67,0.16-1.26,0.47-1.76c0.31-0.5,0.68-1.04,1.11-1.62
					l22.03-27.49c0.96-1.2,1.94-1.8,2.95-1.8H489c0.53,0,0.98,0.19,1.37,0.57c0.38,0.38,0.58,0.84,0.58,1.37v28.79h6.19
					c0.53,0,0.98,0.19,1.37,0.58c0.38,0.39,0.58,0.84,0.58,1.37v5.11c0,0.53-0.19,0.98-0.58,1.37c-0.39,0.38-0.84,0.57-1.37,0.57
					h-6.19v8.71c0,0.53-0.19,0.99-0.58,1.37c-0.39,0.39-0.84,0.58-1.37,0.58H483.17z M481.22,168.72v-15.4l-12.31,15.4H481.22z"/>
				<path class="st7" d="M544.2,156.77c0.05,0.91,0.07,1.92,0.07,3.02c0,1.1,0,2.23,0,3.38c0,1.15,0,2.28,0,3.38
					c0,1.1-0.02,2.11-0.07,3.02c-0.14,2.78-0.57,5.36-1.26,7.74c-0.7,2.38-1.8,4.44-3.31,6.19c-1.51,1.75-3.48,3.12-5.9,4.1
					c-2.42,0.98-5.39,1.48-8.89,1.48c-3.55,0-6.53-0.49-8.93-1.48c-2.4-0.98-4.36-2.35-5.86-4.1c-1.51-1.75-2.62-3.81-3.31-6.19
					c-0.7-2.37-1.11-4.95-1.26-7.74c-0.1-1.82-0.14-3.9-0.14-6.23c0-2.33,0.05-4.4,0.14-6.23c0.14-2.78,0.56-5.39,1.26-7.81
					c0.69-2.42,1.8-4.52,3.31-6.3c1.51-1.77,3.46-3.18,5.86-4.21c2.4-1.03,5.37-1.55,8.93-1.55c3.5,0,6.46,0.49,8.89,1.48
					c2.42,0.98,4.39,2.35,5.9,4.1c1.51,1.75,2.61,3.81,3.31,6.19C543.63,151.41,544.05,153.99,544.2,156.77z M515.19,169.22
					c0.24,3.45,1.07,6.13,2.49,8.03c1.41,1.9,3.8,2.84,7.16,2.84c3.35,0,5.74-0.95,7.16-2.84c1.42-1.89,2.24-4.57,2.49-8.03
					c0.09-1.82,0.14-3.84,0.14-6.05c0-2.21-0.05-4.22-0.14-6.05c-0.24-3.45-1.07-6.13-2.49-8.02c-1.41-1.9-3.8-2.84-7.16-2.84
					c-3.36,0-5.75,0.95-7.16,2.84c-1.42,1.89-2.24,4.57-2.49,8.02c-0.1,1.83-0.14,3.84-0.14,6.05
					C515.05,165.39,515.09,167.4,515.19,169.22z"/>
				<path class="st7" d="M576.66,188.37c-0.53,0-0.98-0.19-1.37-0.58c-0.39-0.38-0.58-0.84-0.58-1.37v-8.71H552.4
					c-0.53,0-0.98-0.19-1.37-0.57c-0.39-0.38-0.58-0.84-0.58-1.37v-5.11c0-0.67,0.16-1.26,0.47-1.76c0.31-0.5,0.69-1.04,1.12-1.62
					l22.02-27.49c0.96-1.2,1.94-1.8,2.95-1.8h5.47c0.53,0,0.99,0.19,1.37,0.57c0.39,0.38,0.58,0.84,0.58,1.37v28.79h6.19
					c0.53,0,0.98,0.19,1.37,0.58c0.38,0.39,0.57,0.84,0.57,1.37v5.11c0,0.53-0.19,0.98-0.57,1.37c-0.39,0.38-0.84,0.57-1.37,0.57
					h-6.19v8.71c0,0.53-0.19,0.99-0.58,1.37c-0.38,0.39-0.84,0.58-1.37,0.58H576.66z M574.72,168.72v-15.4l-12.31,15.4H574.72z"/>
			</g>
			<g>
				<path class="st7" d="M487.05,218.22c0.21,0,0.38,0.07,0.53,0.23c0.15,0.15,0.23,0.33,0.23,0.53v1.01c0,0.21-0.07,0.39-0.23,0.54
					c-0.15,0.15-0.33,0.22-0.53,0.22h-11.38c-0.21,0-0.39-0.08-0.54-0.22c-0.15-0.15-0.22-0.33-0.22-0.54v-18.2
					c0-0.21,0.07-0.39,0.22-0.54c0.15-0.15,0.33-0.22,0.54-0.22h11.16c0.21,0,0.39,0.08,0.53,0.22c0.15,0.15,0.23,0.33,0.23,0.54
					v1.01c0,0.21-0.07,0.39-0.23,0.53c-0.15,0.15-0.33,0.23-0.53,0.23h-9.24v5.95h8.62c0.21,0,0.39,0.07,0.53,0.22
					c0.15,0.15,0.23,0.33,0.23,0.54v1.01c0,0.21-0.07,0.39-0.23,0.54c-0.15,0.15-0.33,0.23-0.53,0.23h-8.62v6.17H487.05z"/>
				<path class="st7" d="M501.97,201.03c0.92,0,1.79,0.11,2.61,0.34c0.82,0.23,1.54,0.57,2.15,1.04c0.62,0.47,1.11,1.07,1.48,1.8
					c0.37,0.73,0.55,1.62,0.55,2.65c0,1.52-0.38,2.73-1.14,3.64c-0.76,0.9-1.73,1.54-2.91,1.92l4.25,7.41
					c0.06,0.11,0.09,0.22,0.09,0.31c0,0.17-0.06,0.31-0.18,0.44c-0.12,0.12-0.27,0.18-0.44,0.18h-1.21c-0.37,0-0.65-0.09-0.83-0.28
					c-0.18-0.19-0.3-0.35-0.38-0.48l-4.08-7.18h-4.85v7.18c0,0.21-0.07,0.39-0.22,0.54c-0.15,0.15-0.33,0.22-0.54,0.22h-1.15
					c-0.21,0-0.39-0.08-0.54-0.22c-0.15-0.15-0.22-0.33-0.22-0.54v-18.2c0-0.21,0.07-0.39,0.22-0.54c0.15-0.15,0.33-0.22,0.54-0.22
					H501.97z M497.07,210.27h4.76c1.35,0,2.4-0.27,3.14-0.8c0.74-0.54,1.11-1.4,1.11-2.61c0-1.2-0.37-2.05-1.11-2.55
					c-0.74-0.5-1.79-0.75-3.14-0.75h-4.76V210.27z"/>
				<path class="st7" d="M523.13,201.03c0.92,0,1.79,0.11,2.61,0.34c0.82,0.23,1.54,0.57,2.15,1.04c0.62,0.47,1.11,1.07,1.48,1.8
					c0.37,0.73,0.55,1.62,0.55,2.65c0,1.52-0.38,2.73-1.14,3.64c-0.76,0.9-1.73,1.54-2.91,1.92l4.25,7.41
					c0.06,0.11,0.09,0.22,0.09,0.31c0,0.17-0.06,0.31-0.18,0.44c-0.12,0.12-0.27,0.18-0.44,0.18h-1.21c-0.37,0-0.65-0.09-0.83-0.28
					c-0.18-0.19-0.3-0.35-0.38-0.48l-4.08-7.18h-4.85v7.18c0,0.21-0.07,0.39-0.22,0.54c-0.15,0.15-0.33,0.22-0.54,0.22h-1.15
					c-0.21,0-0.39-0.08-0.54-0.22c-0.15-0.15-0.22-0.33-0.22-0.54v-18.2c0-0.21,0.07-0.39,0.22-0.54c0.15-0.15,0.33-0.22,0.54-0.22
					H523.13z M518.23,210.27h4.76c1.35,0,2.4-0.27,3.14-0.8c0.74-0.54,1.11-1.4,1.11-2.61c0-1.2-0.37-2.05-1.11-2.55
					c-0.74-0.5-1.79-0.75-3.14-0.75h-4.76V210.27z"/>
				<path class="st7" d="M535.98,208.38c0.02-1.05,0.2-2.04,0.55-2.97c0.35-0.93,0.85-1.74,1.51-2.42c0.66-0.69,1.47-1.23,2.42-1.63
					c0.95-0.4,2.05-0.61,3.3-0.61c1.24,0,2.34,0.2,3.29,0.61c0.96,0.4,1.77,0.95,2.42,1.63c0.66,0.69,1.16,1.49,1.51,2.42
					c0.35,0.93,0.53,1.92,0.55,2.97c0.06,1.67,0.06,3.34,0,5.01c-0.04,1.05-0.23,2.04-0.58,2.97c-0.35,0.93-0.85,1.74-1.51,2.44
					c-0.66,0.69-1.46,1.24-2.41,1.63c-0.95,0.39-2.04,0.59-3.28,0.59c-1.24,0-2.33-0.2-3.28-0.59c-0.95-0.39-1.75-0.94-2.41-1.63
					c-0.66-0.7-1.16-1.51-1.51-2.44c-0.35-0.93-0.54-1.92-0.58-2.97C535.93,211.73,535.93,210.06,535.98,208.38z M548.85,208.53
					c-0.04-0.88-0.18-1.65-0.44-2.31c-0.25-0.66-0.6-1.2-1.06-1.63c-0.45-0.43-0.98-0.76-1.59-0.97c-0.61-0.21-1.28-0.32-2.01-0.32
					c-0.73,0-1.41,0.11-2.01,0.32c-0.61,0.22-1.14,0.54-1.59,0.97s-0.81,0.98-1.07,1.63c-0.26,0.66-0.4,1.43-0.42,2.31
					c-0.04,0.84-0.06,1.63-0.06,2.37c0,0.73,0.02,1.52,0.06,2.37c0.02,0.88,0.16,1.65,0.42,2.31c0.26,0.66,0.62,1.2,1.07,1.63
					c0.45,0.43,0.98,0.76,1.59,0.97c0.61,0.22,1.28,0.32,2.01,0.32c0.73,0,1.4-0.11,2.01-0.32c0.61-0.22,1.14-0.54,1.59-0.97
					c0.45-0.43,0.8-0.98,1.06-1.63c0.25-0.66,0.4-1.43,0.44-2.31c0.04-0.84,0.06-1.63,0.06-2.37
					C548.91,210.16,548.89,209.37,548.85,208.53z"/>
				<path class="st7" d="M566.04,201.03c0.92,0,1.79,0.11,2.61,0.34c0.82,0.23,1.54,0.57,2.15,1.04c0.62,0.47,1.11,1.07,1.48,1.8
					c0.37,0.73,0.55,1.62,0.55,2.65c0,1.52-0.38,2.73-1.14,3.64c-0.76,0.9-1.73,1.54-2.91,1.92l4.25,7.41
					c0.06,0.11,0.09,0.22,0.09,0.31c0,0.17-0.06,0.31-0.18,0.44c-0.12,0.12-0.27,0.18-0.44,0.18h-1.21c-0.37,0-0.65-0.09-0.83-0.28
					c-0.18-0.19-0.3-0.35-0.38-0.48l-4.08-7.18h-4.85v7.18c0,0.21-0.07,0.39-0.22,0.54c-0.15,0.15-0.33,0.22-0.54,0.22h-1.15
					c-0.21,0-0.39-0.08-0.54-0.22c-0.15-0.15-0.22-0.33-0.22-0.54v-18.2c0-0.21,0.07-0.39,0.22-0.54c0.15-0.15,0.33-0.22,0.54-0.22
					H566.04z M561.14,210.27h4.76c1.35,0,2.4-0.27,3.14-0.8c0.74-0.54,1.11-1.4,1.11-2.61c0-1.2-0.37-2.05-1.11-2.55
					c-0.74-0.5-1.79-0.75-3.14-0.75h-4.76V210.27z"/>
			</g>
		</g>
	</g>
</g>
</svg>
